<?xml version="1.0" encoding="UTF-8"?>
<svg id="Layer_1" data-name="Layer 1" xmlns="http://www.w3.org/2000/svg" viewBox="0 0 30 30">
  <defs>
    <style>
      .cls-1 {
        fill: #fff;
      }

      .cls-2 {
        fill: #231f20;
      }
    </style>
  </defs>
  <rect class="cls-1" width="30" height="30"/>
  <g>
    <path class="cls-2" d="M9.99,18.03c-.5,0-.99-.1-1.46-.29-1.02-.43-1.79-1.28-2.13-2.33-.33-1.05-.19-2.19,.39-3.13,.58-.94,1.54-1.57,2.63-1.73l8.99-1.35,.05,.38c.18,1.36,.55,2.54,1.15,3.62l.19,.34-8.13,4.09c-.53,.27-1.11,.4-1.69,.4Zm7.79-7.99l-8.24,1.24c-.87,.13-1.64,.64-2.11,1.39s-.58,1.66-.31,2.51c.27,.84,.89,1.52,1.7,1.86,.81,.34,1.73,.31,2.52-.09l7.44-3.74c-.49-.97-.82-2.01-1-3.17Z"/>
    <path class="cls-2" d="M12.07,23.55c-.53,0-1.03-.34-1.2-.87l-1.6-5.03,3.48-1.11,1.6,5.03c.1,.32,.07,.66-.08,.96-.15,.3-.41,.52-.73,.62l-1.09,.35c-.13,.04-.25,.06-.38,.06Zm-1.85-5.41l1.37,4.31c.08,.26,.36,.41,.63,.33l1.09-.35c.26-.08,.41-.37,.33-.63l-1.37-4.31-2.05,.65Z"/>
    <path class="cls-2" d="M12,20.34c-.05,0-.1-.03-.12-.09l-.53-1.65c-.02-.07,.02-.14,.08-.16,.07-.02,.14,.02,.16,.08l.53,1.65c.02,.07-.02,.14-.08,.16-.01,0-.03,0-.04,0Z"/>
    <path class="cls-2" d="M18.23,13.98c-.83-1.25-1.31-2.54-1.4-3.83l.25-.02c.09,1.25,.55,2.5,1.36,3.72l-.21,.14Z"/>
    <path class="cls-2" d="M20.06,10.12c-.12,0-.22-.03-.3-.06-.12-.04-.21-.08-.37-.02-.06,.02-.14-.02-.16-.08s.02-.14,.08-.16c.24-.08,.4-.02,.53,.03,.12,.04,.21,.08,.37,.02,.16-.05,.22-.13,.29-.24,.08-.11,.18-.25,.42-.33,.24-.08,.41-.02,.53,.03,.12,.04,.21,.08,.38,.02,.16-.05,.22-.13,.29-.24,.08-.11,.18-.25,.42-.33,.07-.02,.14,.02,.16,.08,.02,.07-.02,.14-.08,.16-.16,.05-.22,.13-.29,.24-.08,.11-.18,.25-.42,.33-.24,.08-.41,.02-.54-.03-.12-.04-.22-.08-.38-.02-.16,.05-.22,.13-.29,.24-.08,.11-.18,.25-.42,.33-.09,.03-.16,.04-.23,.04Z"/>
    <path class="cls-2" d="M20.32,10.91c-.12,0-.22-.03-.3-.06-.12-.04-.21-.08-.37-.02-.07,.02-.14-.02-.16-.08s.02-.14,.08-.16c.24-.08,.4-.02,.53,.03,.12,.04,.21,.08,.37,.02,.16-.05,.22-.13,.29-.24,.08-.11,.18-.25,.42-.33,.24-.08,.4-.02,.54,.03,.12,.04,.21,.07,.38,.02,.16-.05,.22-.13,.29-.24,.08-.11,.18-.25,.42-.33,.07-.02,.14,.02,.16,.08,.02,.07-.02,.14-.08,.16-.16,.05-.22,.13-.29,.24-.08,.11-.18,.25-.42,.33-.24,.08-.41,.02-.54-.03-.12-.04-.21-.08-.38-.02-.16,.05-.22,.13-.29,.24-.08,.11-.18,.25-.42,.33-.08,.03-.16,.04-.23,.04Z"/>
    <path class="cls-2" d="M20.57,11.71c-.12,0-.22-.03-.3-.06-.12-.04-.21-.08-.37-.02-.07,.02-.14-.02-.16-.08s.02-.14,.08-.16c.25-.08,.4-.02,.53,.03,.12,.04,.21,.08,.37,.02,.16-.05,.22-.13,.29-.24,.08-.11,.18-.25,.42-.33,.24-.08,.4-.02,.54,.03,.12,.04,.21,.07,.38,.02,.16-.05,.22-.13,.29-.24,.08-.11,.18-.25,.42-.33,.07-.02,.14,.02,.16,.08,.02,.07-.02,.14-.08,.16-.16,.05-.22,.13-.29,.24-.08,.11-.18,.25-.42,.33-.24,.08-.41,.02-.54-.03-.12-.04-.21-.08-.38-.02-.16,.05-.22,.13-.29,.24-.08,.11-.18,.25-.42,.33-.09,.03-.16,.04-.23,.04Z"/>
    <path class="cls-2" d="M20.82,12.5c-.12,0-.22-.03-.3-.06-.12-.04-.21-.08-.37-.02-.06,.02-.14-.02-.16-.08s.02-.14,.08-.16c.24-.08,.4-.02,.53,.03,.12,.04,.21,.08,.37,.02,.16-.05,.22-.13,.29-.24,.08-.11,.18-.25,.42-.33,.24-.08,.4-.02,.54,.03,.12,.04,.21,.08,.38,.02,.16-.05,.22-.13,.29-.24,.08-.11,.18-.25,.42-.33,.06-.02,.14,.02,.16,.08,.02,.07-.02,.14-.08,.16-.16,.05-.22,.13-.29,.24-.08,.11-.18,.25-.42,.33-.25,.08-.41,.02-.54-.03-.12-.04-.21-.08-.38-.02-.16,.05-.22,.13-.29,.24-.08,.11-.18,.25-.42,.33-.09,.03-.16,.04-.23,.04Z"/>
  </g>
</svg>