<?xml version="1.0" encoding="utf-8"?>
<!-- Generator: Adobe Illustrator 26.5.0, SVG Export Plug-In . SVG Version: 6.00 Build 0)  -->
<svg version="1.1" id="Layer_1" xmlns="http://www.w3.org/2000/svg" xmlns:xlink="http://www.w3.org/1999/xlink" x="0px" y="0px"
	 viewBox="0 0 30 30" style="enable-background:new 0 0 30 30;" xml:space="preserve">
<style type="text/css">
	.st0{fill:#FFFFFF;}
	.st1{fill:#333333;}
</style>
<rect class="st0" width="30" height="30"/>
<g>
	<g>
		<path d="M20.55,8.98h-6.39V7.74c0-0.38,0.31-0.69,0.69-0.69h5.02c0.38,0,0.69,0.31,0.69,0.69V8.98z M14.66,8.48h5.4V7.74
			c0-0.1-0.09-0.19-0.19-0.19h-5.02c-0.1,0-0.19,0.08-0.19,0.19V8.48z"/>
	</g>
	<g>
		<path d="M22.97,15.1H11.73c-0.3,0-0.55-0.25-0.55-0.55v-0.83c0-0.3,0.25-0.55,0.55-0.55h11.24c0.3,0,0.55,0.25,0.55,0.55v0.83
			C23.53,14.85,23.28,15.1,22.97,15.1z M11.73,13.67c-0.03,0-0.05,0.02-0.05,0.05v0.83c0,0.03,0.02,0.05,0.05,0.05h11.24
			c0.03,0,0.05-0.02,0.05-0.05v-0.83c0-0.03-0.02-0.05-0.05-0.05H11.73z"/>
	</g>
	<g>
		<path d="M22.78,13.67H11.93l2.32-5.18h6.22L22.78,13.67z M12.69,13.17h9.32l-1.87-4.18h-5.57L12.69,13.17z"/>
	</g>
	<g>
		<path d="M11.13,22.95H6.47v-6.71h4.66V22.95z M6.97,22.45h3.66v-5.71H6.97V22.45z"/>
	</g>
	<g>
		<path d="M15.29,22.95h-4.66v-6.71h4.66V22.95z M11.13,22.45h3.66v-5.71h-3.66V22.45z"/>
	</g>
	<g>
		<path d="M23.53,22.95h-8.74v-6.71h8.74V22.95z M15.29,22.45h7.74v-5.71h-7.74V22.45z"/>
	</g>
	<g>
		<path d="M8.22,20.39c-0.07,0-0.12-0.06-0.12-0.12v-1.33c0-0.07,0.06-0.12,0.12-0.12c0.07,0,0.12,0.06,0.12,0.12v1.33
			C8.34,20.33,8.29,20.39,8.22,20.39z"/>
	</g>
	<g>
		<path d="M12.38,20.39c-0.07,0-0.12-0.06-0.12-0.12v-1.33c0-0.07,0.06-0.12,0.12-0.12s0.12,0.06,0.12,0.12v1.33
			C12.5,20.33,12.45,20.39,12.38,20.39z"/>
	</g>
	<g>
		<path d="M16.54,20.39c-0.07,0-0.12-0.06-0.12-0.12v-1.33c0-0.07,0.06-0.12,0.12-0.12s0.12,0.06,0.12,0.12v1.33
			C16.66,20.33,16.6,20.39,16.54,20.39z"/>
	</g>
</g>
</svg>
