<?xml version="1.0" encoding="utf-8"?>
<!-- Generator: Adobe Illustrator 26.5.0, SVG Export Plug-In . SVG Version: 6.00 Build 0)  -->
<svg version="1.1" id="Layer_1" xmlns="http://www.w3.org/2000/svg" xmlns:xlink="http://www.w3.org/1999/xlink" x="0px" y="0px"
	 viewBox="0 0 30 30" style="enable-background:new 0 0 30 30;" xml:space="preserve">
<style type="text/css">
	.st0{fill:#FFFFFF;}
	.st1{fill:#333333;}
</style>
<rect x="0.05" y="-0.02" class="st0" width="30" height="30"/>
<g>
	<g>
		<g>
			<path d="M19.12,23.51h-8.24c-0.61,0-1.1-0.49-1.1-1.1V7.59c0-0.61,0.49-1.1,1.1-1.1h8.24c0.61,0,1.1,0.49,1.1,1.1v14.83
				C20.22,23.02,19.72,23.51,19.12,23.51z M10.88,6.99c-0.33,0-0.6,0.27-0.6,0.6v14.83c0,0.33,0.27,0.6,0.6,0.6h8.24
				c0.33,0,0.6-0.27,0.6-0.6V7.59c0-0.33-0.27-0.6-0.6-0.6H10.88z"/>
		</g>
		<g>
			<rect x="10.03" y="11.82" width="9.94" height="0.5"/>
		</g>
		<g>
			<path d="M11.79,11.24c-0.14,0-0.25-0.11-0.25-0.25V9.23c0-0.14,0.11-0.25,0.25-0.25c0.14,0,0.25,0.11,0.25,0.25v1.76
				C12.04,11.13,11.93,11.24,11.79,11.24z"/>
		</g>
		<g>
			<path d="M11.79,18.75c-0.14,0-0.25-0.11-0.25-0.25v-5.37c0-0.14,0.11-0.25,0.25-0.25c0.14,0,0.25,0.11,0.25,0.25v5.37
				C12.04,18.64,11.93,18.75,11.79,18.75z"/>
		</g>
	</g>
</g>
</svg>
