<?xml version="1.0" encoding="utf-8"?>
<!-- Generator: Adobe Illustrator 26.5.0, SVG Export Plug-In . SVG Version: 6.00 Build 0)  -->
<svg version="1.1" id="Layer_1" xmlns="http://www.w3.org/2000/svg" xmlns:xlink="http://www.w3.org/1999/xlink" x="0px" y="0px"
	 viewBox="0 0 30 30" style="enable-background:new 0 0 30 30;" xml:space="preserve">
<style type="text/css">
	.st0{fill:#FFFFFF;}
	.st1{fill:#333333;}
</style>
<rect class="st0" width="30" height="30"/>
<g>
	<g>
		<path d="M22.41,20.06H7.59c-0.61,0-1.1-0.49-1.1-1.1V9.84c0-0.61,0.49-1.1,1.1-1.1h14.82c0.61,0,1.1,0.49,1.1,1.1v9.12
			C23.51,19.57,23.02,20.06,22.41,20.06z M7.59,9.24c-0.33,0-0.6,0.27-0.6,0.6v9.12c0,0.33,0.27,0.6,0.6,0.6h14.82
			c0.33,0,0.6-0.27,0.6-0.6V9.84c0-0.33-0.27-0.6-0.6-0.6H7.59z"/>
	</g>
	<g>
		<path d="M20.53,21.25c-0.03,0-0.07-0.01-0.1-0.02c-3.61-1.54-7.27-1.54-10.87,0c-0.13,0.05-0.27,0-0.33-0.13
			c-0.05-0.13,0-0.27,0.13-0.33c3.74-1.6,7.53-1.6,11.26,0c0.13,0.05,0.19,0.2,0.13,0.33C20.72,21.2,20.63,21.25,20.53,21.25z"/>
	</g>
</g>
</svg>
