<?xml version="1.0" encoding="utf-8"?>
<!-- Generator: Adobe Illustrator 26.5.0, SVG Export Plug-In . SVG Version: 6.00 Build 0)  -->
<svg version="1.1" id="Layer_1" xmlns="http://www.w3.org/2000/svg" xmlns:xlink="http://www.w3.org/1999/xlink" x="0px" y="0px"
	 viewBox="0 0 30 30" style="enable-background:new 0 0 30 30;" xml:space="preserve">
<style type="text/css">
	.st0{fill:#FFFFFF;}
	.st1{fill:#333333;}
</style>
<rect class="st0" width="30" height="30"/>
<g>
	<g>
		<path d="M6.77,16.18c-0.06,0-0.13-0.02-0.18-0.07c-0.11-0.1-0.11-0.26-0.02-0.37L15,6.55l8.42,9.2c0.1,0.11,0.09,0.27-0.02,0.37
			c-0.11,0.1-0.27,0.09-0.37-0.02L15,7.32L6.96,16.1C6.91,16.16,6.84,16.18,6.77,16.18z"/>
	</g>
	<g>
		<g>
			<path d="M14.47,23.45h-4.36c-0.38,0-0.68-0.31-0.68-0.68v-7.68c0-0.32,0.26-0.58,0.59-0.58h4.13c0.32,0,0.58,0.26,0.58,0.58v2.74
				h-0.52v-2.74c0-0.03-0.02-0.06-0.06-0.06h-4.13c-0.04,0-0.07,0.03-0.07,0.06v7.68c0,0.09,0.07,0.16,0.16,0.16h4.36V23.45z"/>
		</g>
		<g>
			<path d="M17.92,23.45h-5.3v-5.41c0-0.26,0.21-0.46,0.46-0.46h4.37c0.26,0,0.46,0.21,0.46,0.46V23.45z M13.14,22.93h4.26v-4.84
				h-4.26V22.93z"/>
		</g>
		<g>
			<path d="M19.89,23.45h-4.36v-0.52h4.36c0.09,0,0.16-0.07,0.16-0.16v-7.68c0-0.03-0.03-0.06-0.06-0.06h-4.14
				c-0.04,0-0.07,0.03-0.07,0.07v2.74h-0.52v-2.74c0-0.32,0.26-0.59,0.59-0.59h4.14c0.32,0,0.58,0.26,0.58,0.58v7.68
				C20.57,23.15,20.26,23.45,19.89,23.45z"/>
		</g>
		<g>
			<circle cx="12.85" cy="16.09" r="0.38"/>
		</g>
		<g>
			<rect x="12.88" y="19.11" width="4.61" height="0.52"/>
		</g>
		<g>
			<path d="M19.17,20.04c-0.11,0-0.19-0.09-0.19-0.19v-1.74c0-0.11,0.09-0.19,0.19-0.19s0.19,0.09,0.19,0.19v1.74
				C19.37,19.96,19.28,20.04,19.17,20.04z"/>
		</g>
	</g>
</g>
</svg>
