<?xml version="1.0" encoding="utf-8"?>
<!-- Generator: Adobe Illustrator 26.5.0, SVG Export Plug-In . SVG Version: 6.00 Build 0)  -->
<svg version="1.1" id="Layer_1" xmlns="http://www.w3.org/2000/svg" xmlns:xlink="http://www.w3.org/1999/xlink" x="0px" y="0px"
	 viewBox="0 0 30 30" style="enable-background:new 0 0 30 30;" xml:space="preserve">
<style type="text/css">
	.st0{fill:#FFFFFF;}
	.st1{fill:#333333;}
</style>
<rect class="st0" width="30" height="30"/>
<g>
	<g>
		<path d="M20.18,23.51H9.82c-0.82,0-1.49-0.67-1.49-1.49V7.97c0-0.82,0.67-1.49,1.49-1.49h10.36c0.82,0,1.49,0.67,1.49,1.49v14.05
			C21.66,22.84,21,23.51,20.18,23.51z M9.82,7.12c-0.47,0-0.85,0.38-0.85,0.85v14.05c0,0.47,0.38,0.85,0.85,0.85h10.36
			c0.47,0,0.85-0.38,0.85-0.85V7.97c0-0.47-0.38-0.85-0.85-0.85H9.82z"/>
	</g>
	<g>
		<path d="M18.47,20.85h-6.95c-0.42,0-0.76-0.34-0.76-0.76v-1.21c0-0.42,0.34-0.76,0.76-0.76h6.95c0.42,0,0.76,0.34,0.76,0.76v1.21
			C19.23,20.51,18.89,20.85,18.47,20.85z M11.53,18.75c-0.07,0-0.13,0.06-0.13,0.13v1.21c0,0.07,0.06,0.13,0.13,0.13h6.95
			c0.07,0,0.13-0.06,0.13-0.13v-1.21c0-0.07-0.06-0.13-0.13-0.13H11.53z"/>
	</g>
	<g>
		<g>
			<circle cx="13.83" cy="16.62" r="0.62"/>
		</g>
		<g>
			<circle cx="16.17" cy="16.62" r="0.62"/>
		</g>
	</g>
	<g>
		<g>
			<path d="M12.69,13.63c-0.13,0-0.24-0.11-0.24-0.24c0-0.35,0.2-0.54,0.35-0.67c0.13-0.12,0.19-0.19,0.19-0.33
				s-0.06-0.21-0.19-0.33c-0.15-0.14-0.35-0.32-0.35-0.67s0.2-0.54,0.35-0.67c0.13-0.12,0.19-0.19,0.19-0.32
				c0-0.13,0.11-0.24,0.24-0.24s0.24,0.11,0.24,0.24c0,0.35-0.2,0.54-0.35,0.67c-0.13,0.12-0.19,0.19-0.19,0.32
				c0,0.14,0.06,0.2,0.19,0.33c0.15,0.14,0.35,0.32,0.35,0.68c0,0.35-0.2,0.54-0.35,0.67c-0.13,0.12-0.19,0.19-0.19,0.33
				C12.93,13.52,12.82,13.63,12.69,13.63z"/>
		</g>
		<g>
			<path d="M14.73,13.63c-0.13,0-0.24-0.11-0.24-0.24c0-0.35,0.2-0.54,0.35-0.67c0.13-0.12,0.19-0.19,0.19-0.33s-0.06-0.2-0.19-0.33
				c-0.15-0.14-0.35-0.32-0.35-0.67s0.2-0.54,0.35-0.67c0.13-0.12,0.19-0.19,0.19-0.32c0-0.13,0.11-0.24,0.24-0.24
				s0.24,0.11,0.24,0.24c0,0.35-0.2,0.54-0.35,0.67c-0.13,0.12-0.19,0.19-0.19,0.32c0,0.14,0.06,0.2,0.19,0.33
				c0.15,0.14,0.35,0.32,0.35,0.68c0,0.35-0.2,0.54-0.35,0.67c-0.13,0.12-0.19,0.19-0.19,0.33C14.97,13.52,14.86,13.63,14.73,13.63z
				"/>
		</g>
		<g>
			<path d="M16.77,13.63c-0.13,0-0.24-0.11-0.24-0.24c0-0.35,0.2-0.54,0.35-0.67c0.13-0.12,0.19-0.19,0.19-0.33s-0.06-0.2-0.19-0.33
				c-0.15-0.14-0.35-0.32-0.35-0.67s0.2-0.54,0.35-0.67c0.13-0.12,0.19-0.19,0.19-0.32c0-0.13,0.11-0.24,0.24-0.24
				c0.13,0,0.24,0.11,0.24,0.24c0,0.35-0.2,0.54-0.35,0.67C17.07,11.18,17,11.25,17,11.39c0,0.14,0.06,0.2,0.19,0.33
				c0.15,0.14,0.35,0.32,0.35,0.68c0,0.35-0.2,0.54-0.35,0.67C17.07,13.18,17,13.25,17,13.39C17,13.52,16.9,13.63,16.77,13.63z"/>
		</g>
	</g>
</g>
</svg>
