<?xml version="1.0" encoding="utf-8"?>
<!-- Generator: Adobe Illustrator 26.5.0, SVG Export Plug-In . SVG Version: 6.00 Build 0)  -->
<svg version="1.1" id="Layer_1" xmlns="http://www.w3.org/2000/svg" xmlns:xlink="http://www.w3.org/1999/xlink" x="0px" y="0px"
	 viewBox="0 0 30 30" style="enable-background:new 0 0 30 30;" xml:space="preserve">
<style type="text/css">
	.st0{fill:#FFFFFF;}
	.st1{fill:#333333;}
</style>
<rect class="st0" width="30" height="30"/>
<g>
	<g>
		<path d="M19.62,21.66h-9.23c-0.73,0-1.32-0.59-1.32-1.32V7.81c0-0.73,0.59-1.32,1.32-1.32h9.23c0.73,0,1.32,0.59,1.32,1.32v12.53
			C20.94,21.07,20.35,21.66,19.62,21.66z M10.38,7.05c-0.42,0-0.76,0.34-0.76,0.76v12.53c0,0.42,0.34,0.76,0.76,0.76h9.23
			c0.42,0,0.76-0.34,0.76-0.76V7.81c0-0.42-0.34-0.76-0.76-0.76H10.38z"/>
	</g>
	<g>
		<rect x="9.34" y="17.34" width="11.32" height="0.57"/>
	</g>
	<g>
		<g>
			<g>
				<path d="M13.2,22.98h-1.25c-0.15,0-0.27-0.12-0.27-0.27v-1.33h0.28v1.33l1.24-0.01l-0.01-1.32h0.28v1.33
					C13.47,22.86,13.35,22.98,13.2,22.98z"/>
			</g>
			<g>
				<path d="M12.57,23.51c-0.08,0-0.14-0.06-0.14-0.14v-0.43c0-0.08,0.06-0.14,0.14-0.14s0.14,0.06,0.14,0.14v0.43
					C12.72,23.45,12.65,23.51,12.57,23.51z"/>
			</g>
		</g>
		<g>
			<g>
				<path d="M18.05,22.98H16.8c-0.15,0-0.27-0.12-0.27-0.27v-1.33h0.28v1.33l1.24-0.01l-0.01-1.32h0.28v1.33
					C18.32,22.86,18.2,22.98,18.05,22.98z"/>
			</g>
			<g>
				<path d="M17.43,23.51c-0.08,0-0.14-0.06-0.14-0.14v-0.43c0-0.08,0.06-0.14,0.14-0.14c0.08,0,0.14,0.06,0.14,0.14v0.43
					C17.57,23.45,17.5,23.51,17.43,23.51z"/>
			</g>
		</g>
	</g>
	<g>
		<path d="M18.1,15.99h-6.2c-0.16,0-0.28-0.13-0.28-0.28c0-0.16,0.13-0.28,0.28-0.28h6.2c0.16,0,0.28,0.13,0.28,0.28
			C18.38,15.87,18.26,15.99,18.1,15.99z"/>
	</g>
	<g>
		<path d="M18.1,14.36h-6.2c-0.16,0-0.28-0.13-0.28-0.28c0-0.16,0.13-0.28,0.28-0.28h6.2c0.16,0,0.28,0.13,0.28,0.28
			C18.38,14.23,18.26,14.36,18.1,14.36z"/>
	</g>
	<g>
		<path d="M18.1,12.73h-6.2c-0.16,0-0.28-0.13-0.28-0.28c0-0.16,0.13-0.28,0.28-0.28h6.2c0.16,0,0.28,0.13,0.28,0.28
			C18.38,12.6,18.26,12.73,18.1,12.73z"/>
	</g>
</g>
</svg>
