<?xml version="1.0" encoding="utf-8"?>
<!-- Generator: Adobe Illustrator 26.5.0, SVG Export Plug-In . SVG Version: 6.00 Build 0)  -->
<svg version="1.1" id="Layer_1" xmlns="http://www.w3.org/2000/svg" xmlns:xlink="http://www.w3.org/1999/xlink" x="0px" y="0px"
	 viewBox="0 0 30 30" style="enable-background:new 0 0 30 30;" xml:space="preserve">
<style type="text/css">
	.st0{fill:#FFFFFF;}
	.st1{fill:#333333;}
</style>
<rect class="st0" width="30" height="30"/>
<g>
	<g>
		<path d="M20.17,23.5H9.83c-0.82,0-1.48-0.67-1.48-1.48V7.98c0-0.82,0.67-1.48,1.48-1.48h10.34c0.82,0,1.48,0.67,1.48,1.48v14.03
			C21.66,22.84,20.99,23.5,20.17,23.5z M9.83,7.13c-0.47,0-0.85,0.38-0.85,0.85v14.03c0,0.47,0.38,0.85,0.85,0.85h10.34
			c0.47,0,0.85-0.38,0.85-0.85V7.98c0-0.47-0.38-0.85-0.85-0.85H9.83z"/>
	</g>
	<g>
		<rect x="8.66" y="17.9" width="12.68" height="0.63"/>
	</g>
	<g>
		<path d="M18.79,18.53h-7.58v-5.57c0-1.28,1.04-2.31,2.31-2.31h2.95c1.28,0,2.31,1.04,2.31,2.31V18.53z M11.84,17.9h6.31v-4.94
			c0-0.93-0.75-1.68-1.68-1.68h-2.95c-0.93,0-1.68,0.75-1.68,1.68V17.9z"/>
	</g>
	<g>
		<g>
			<path d="M14.42,13.6h-0.77c-0.21,0-0.38-0.17-0.38-0.38v-2.36h1.54v2.36C14.81,13.43,14.64,13.6,14.42,13.6z M13.75,13.12h0.59
				v-1.79h-0.59V13.12z"/>
		</g>
		<g>
			<path d="M16.34,13.6h-0.77c-0.21,0-0.38-0.17-0.38-0.38v-2.36h1.54v2.36C16.73,13.43,16.56,13.6,16.34,13.6z M15.67,13.12h0.59
				v-1.79h-0.59V13.12z"/>
		</g>
	</g>
	<g>
		<path d="M14.04,14.11c-0.09,0-0.16-0.07-0.16-0.16v-0.48c0-0.09,0.07-0.16,0.16-0.16s0.16,0.07,0.16,0.16v0.48
			C14.2,14.04,14.13,14.11,14.04,14.11z"/>
	</g>
	<g>
		<path d="M15.96,14.11c-0.09,0-0.16-0.07-0.16-0.16v-0.48c0-0.09,0.07-0.16,0.16-0.16s0.16,0.07,0.16,0.16v0.48
			C16.12,14.04,16.05,14.11,15.96,14.11z"/>
	</g>
	<g>
		<path d="M14.04,9.77c-0.42,0-0.75-0.34-0.75-0.75c0-0.41,0.34-0.75,0.75-0.75c0.41,0,0.75,0.34,0.75,0.75
			C14.79,9.43,14.45,9.77,14.04,9.77z M14.04,8.42c-0.33,0-0.59,0.27-0.59,0.59c0,0.33,0.27,0.59,0.59,0.59
			c0.33,0,0.59-0.27,0.59-0.59C14.63,8.69,14.37,8.42,14.04,8.42z"/>
	</g>
	<g>
		<path d="M15.96,9.77c-0.41,0-0.75-0.34-0.75-0.75c0-0.41,0.34-0.75,0.75-0.75c0.42,0,0.75,0.34,0.75,0.75
			C16.71,9.43,16.37,9.77,15.96,9.77z M15.96,8.42c-0.33,0-0.59,0.27-0.59,0.59c0,0.33,0.27,0.59,0.59,0.59
			c0.33,0,0.59-0.27,0.59-0.59C16.55,8.69,16.29,8.42,15.96,8.42z"/>
	</g>
	<g>
		<path d="M18.47,20.28h-2.51c-0.18,0-0.32-0.14-0.32-0.32c0-0.18,0.14-0.32,0.32-0.32h2.51c0.18,0,0.32,0.14,0.32,0.32
			C18.79,20.14,18.65,20.28,18.47,20.28z"/>
	</g>
</g>
</svg>
