<?xml version="1.0" encoding="utf-8"?>
<!-- Generator: Adobe Illustrator 26.5.0, SVG Export Plug-In . SVG Version: 6.00 Build 0)  -->
<svg version="1.1" id="Layer_1" xmlns="http://www.w3.org/2000/svg" xmlns:xlink="http://www.w3.org/1999/xlink" x="0px" y="0px"
	 viewBox="0 0 30 30" style="enable-background:new 0 0 30 30;" xml:space="preserve">
<style type="text/css">
	.st0{fill:#FFFFFF;}
	.st1{fill:#333333;}
</style>
<rect class="st0" width="30" height="30"/>
<g>
	<g>
		<path d="M15.56,21.22c-0.14,0-0.28-0.03-0.41-0.09l-4.75-2.13l-2.91-0.02c-0.55,0-1-0.45-1-1v-5.87c0-0.54,0.43-0.98,0.97-1
			l2.86-0.11c0.03,0,0.05-0.01,0.07-0.02l4.76-2.13c0.31-0.14,0.67-0.11,0.95,0.07c0.29,0.19,0.45,0.5,0.45,0.84v10.44
			c0,0.34-0.17,0.65-0.46,0.84C15.93,21.17,15.75,21.22,15.56,21.22z M10.35,11.83l-2.86,0.11c-0.1,0-0.18,0.08-0.18,0.18v5.87
			c0,0.1,0.08,0.18,0.18,0.18h2.84c0.14,0,0.28,0.03,0.41,0.09l4.74,2.13c0.08,0.03,0.14,0.01,0.17-0.01
			c0.03-0.02,0.08-0.07,0.08-0.15V9.78c0-0.08-0.05-0.13-0.08-0.15c-0.03-0.02-0.09-0.05-0.17-0.01l-4.75,2.13
			C10.61,11.79,10.48,11.82,10.35,11.83z"/>
	</g>
	<g>
		<g>
			<g>
				<path d="M19.22,18.93c-0.07,0-0.14-0.04-0.18-0.1c-0.06-0.1-0.02-0.22,0.08-0.28c1.26-0.73,2.05-2.09,2.05-3.55
					s-0.78-2.82-2.05-3.55c-0.1-0.06-0.13-0.18-0.08-0.28c0.06-0.1,0.18-0.13,0.28-0.08c1.39,0.8,2.25,2.3,2.25,3.9
					c0,1.6-0.86,3.1-2.25,3.9C19.29,18.92,19.25,18.93,19.22,18.93z"/>
			</g>
		</g>
		<g>
			<g>
				<path d="M20.29,20.42c-0.07,0-0.14-0.04-0.18-0.1c-0.06-0.1-0.02-0.22,0.08-0.28C21.99,19,23.1,17.07,23.1,15s-1.12-4-2.91-5.04
					c-0.1-0.06-0.13-0.18-0.08-0.28c0.06-0.1,0.18-0.13,0.28-0.08c1.92,1.11,3.12,3.18,3.12,5.4s-1.19,4.29-3.12,5.4
					C20.36,20.42,20.33,20.42,20.29,20.42z"/>
			</g>
		</g>
		<g>
			<g>
				<path d="M18.4,17.26c-0.07,0-0.14-0.04-0.18-0.1c-0.06-0.1-0.02-0.22,0.08-0.28c0.67-0.39,1.08-1.1,1.08-1.88
					c0-0.77-0.41-1.49-1.08-1.88c-0.1-0.06-0.13-0.18-0.08-0.28c0.06-0.1,0.18-0.13,0.28-0.08c0.79,0.46,1.29,1.31,1.29,2.23
					c0,0.92-0.49,1.77-1.29,2.23C18.47,17.25,18.43,17.26,18.4,17.26z"/>
			</g>
		</g>
	</g>
	<g>
		<path d="M10.23,18.8c-0.23,0-0.41-0.18-0.41-0.41v-6.59c0-0.23,0.18-0.41,0.41-0.41c0.23,0,0.41,0.18,0.41,0.41v6.59
			C10.64,18.62,10.46,18.8,10.23,18.8z"/>
	</g>
</g>
</svg>
