<?xml version="1.0" encoding="utf-8"?>
<!-- Generator: Adobe Illustrator 26.5.0, SVG Export Plug-In . SVG Version: 6.00 Build 0)  -->
<svg version="1.1" id="Layer_1" xmlns="http://www.w3.org/2000/svg" xmlns:xlink="http://www.w3.org/1999/xlink" x="0px" y="0px"
	 viewBox="0 0 30 30" style="enable-background:new 0 0 30 30;" xml:space="preserve">
<style type="text/css">
	.st0{fill:#FFFFFF;}
	.st1{fill:#333333;}
</style>
<rect class="st0" width="30" height="30"/>
<g>
	<g>
		<path d="M20.76,23.51H9.24c-0.95,0-1.72-0.77-1.72-1.72V8.22c0-0.95,0.77-1.72,1.72-1.72h11.52c0.95,0,1.72,0.77,1.72,1.72v13.57
			C22.48,22.73,21.71,23.51,20.76,23.51z M9.24,7.21c-0.56,0-1.01,0.45-1.01,1.01v13.57c0,0.56,0.45,1.01,1.01,1.01h11.52
			c0.57,0,1.01-0.44,1.01-1.01V8.22c0-0.57-0.44-1.01-1.01-1.01H9.24z M15,21.82c-1.43,0-2.77-0.63-3.69-1.73
			c-0.71-0.86-1.11-1.95-1.11-3.07c0-1.14,0.38-2.2,1.11-3.07c0.91-1.1,2.26-1.74,3.69-1.74c2.65,0,4.8,2.16,4.8,4.8
			C19.8,19.67,17.65,21.82,15,21.82z M15,12.93c-1.22,0-2.36,0.54-3.14,1.48c-0.62,0.74-0.94,1.64-0.94,2.61
			c0,0.96,0.33,1.88,0.94,2.61c0.78,0.94,1.93,1.47,3.14,1.47c2.26,0,4.09-1.83,4.09-4.08C19.09,14.77,17.26,12.93,15,12.93z"/>
	</g>
	<g>
		<path d="M22.13,11.38H7.87c-0.2,0-0.36-0.16-0.36-0.36s0.16-0.36,0.36-0.36h14.26c0.2,0,0.36,0.16,0.36,0.36
			S22.32,11.38,22.13,11.38z"/>
	</g>
	<g>
		<circle cx="18.2" cy="8.94" r="0.47"/>
	</g>
	<g>
		<circle cx="19.77" cy="8.94" r="0.47"/>
	</g>
</g>
</svg>
