<?xml version="1.0" encoding="utf-8"?>
<!-- Generator: Adobe Illustrator 26.5.0, SVG Export Plug-In . SVG Version: 6.00 Build 0)  -->
<svg version="1.1" id="Layer_1" xmlns="http://www.w3.org/2000/svg" xmlns:xlink="http://www.w3.org/1999/xlink" x="0px" y="0px"
	 viewBox="0 0 30 30" style="enable-background:new 0 0 30 30;" xml:space="preserve">
<style type="text/css">
	.st0{fill:#FFFFFF;}
	.st1{fill:#333333;}
</style>
<rect class="st0" width="30" height="30"/>
<g>
	<g>
		<path d="M22.01,16.66H7.98V8.11c0-0.89,0.72-1.62,1.62-1.62h10.8c0.91,0,1.62,0.71,1.62,1.62V16.66z M8.65,15.99h12.69V8.11
			c0-0.53-0.42-0.95-0.95-0.95H9.6c-0.52,0-0.95,0.43-0.95,0.95V15.99z"/>
	</g>
	<g>
		<path d="M21.68,11.08H8.32c-0.18,0-0.33-0.15-0.33-0.33c0-0.18,0.15-0.33,0.33-0.33h13.36c0.18,0,0.33,0.15,0.33,0.33
			C22.01,10.93,21.86,11.08,21.68,11.08z"/>
	</g>
	<g>
		<g>
			<path d="M10.94,16.34l-0.33-0.03c0.05-0.54,0.26-1.05,0.6-1.47c0.57-0.69,1.45-1.03,2.32-0.96l-0.01,0.33
				c-0.09-0.01-0.16-0.01-0.24-0.01c-0.7,0-1.36,0.31-1.81,0.85C11.17,15.42,10.98,15.86,10.94,16.34z"/>
		</g>
		<g>
			<path d="M19.14,16.49h-5.75l-0.04-0.11c-0.14-0.37-0.22-0.76-0.22-1.16c0-0.44,0.09-0.87,0.26-1.26
				c0.11-0.27,0.27-0.52,0.46-0.75c0.6-0.72,1.48-1.13,2.42-1.13c1.73,0,3.14,1.41,3.14,3.14c0,0.41-0.08,0.81-0.23,1.16
				L19.14,16.49z M13.61,16.16h5.3c0.1-0.29,0.16-0.61,0.16-0.93c0-1.55-1.26-2.81-2.81-2.81c-0.84,0-1.63,0.37-2.16,1.01
				c-0.17,0.2-0.31,0.43-0.41,0.67c-0.15,0.35-0.23,0.73-0.23,1.13C13.46,15.55,13.51,15.86,13.61,16.16z"/>
		</g>
		<g>
			<path d="M18.76,15.31c-0.05,0-0.08-0.04-0.08-0.08c0-1.33-1.08-2.42-2.42-2.42c-0.05,0-0.08-0.04-0.08-0.08
				c0-0.05,0.04-0.08,0.08-0.08c1.43,0,2.59,1.16,2.59,2.59C18.85,15.27,18.81,15.31,18.76,15.31z"/>
		</g>
	</g>
	<g>
		<path d="M21.98,23.5H8.02L7.3,16.86c-0.02-0.22,0.05-0.44,0.2-0.61c0.15-0.16,0.36-0.26,0.57-0.26h13.86
			c0.22,0,0.43,0.09,0.57,0.26c0.15,0.16,0.22,0.38,0.2,0.61v0L21.98,23.5z M8.62,22.83h12.76l0.66-6.05c0-0.05-0.02-0.08-0.03-0.09
			c-0.01-0.01-0.04-0.04-0.08-0.04H8.07c-0.04,0-0.07,0.02-0.08,0.04c-0.01,0.01-0.03,0.04-0.03,0.09L8.62,22.83z"/>
	</g>
	<g>
		<path d="M16.65,18.21h-3.29c-0.09,0-0.17-0.07-0.17-0.17c0-0.09,0.07-0.17,0.17-0.17h3.29c0.09,0,0.17,0.07,0.17,0.17
			C16.81,18.14,16.74,18.21,16.65,18.21z"/>
	</g>
	<g>
		<g>
			<path d="M10.32,9.45c-0.36,0-0.66-0.3-0.66-0.66c0-0.36,0.3-0.66,0.66-0.66c0.36,0,0.66,0.3,0.66,0.66
				C10.98,9.16,10.68,9.45,10.32,9.45z M10.32,8.3c-0.27,0-0.49,0.22-0.49,0.49c0,0.27,0.22,0.49,0.49,0.49s0.49-0.22,0.49-0.49
				C10.81,8.52,10.59,8.3,10.32,8.3z"/>
		</g>
		<g>
			<circle cx="11.72" cy="8.79" r="0.42"/>
		</g>
		<g>
			<g>
				<circle cx="19.39" cy="8.8" r="0.18"/>
			</g>
			<g>
				<circle cx="19.73" cy="8.45" r="0.18"/>
			</g>
			<g>
				<circle cx="19.73" cy="9.14" r="0.18"/>
			</g>
			<g>
				<circle cx="20.08" cy="8.79" r="0.18"/>
			</g>
		</g>
	</g>
</g>
</svg>
