<?xml version="1.0" encoding="utf-8"?>
<!-- Generator: Adobe Illustrator 26.5.0, SVG Export Plug-In . SVG Version: 6.00 Build 0)  -->
<svg version="1.1" id="Layer_1" xmlns="http://www.w3.org/2000/svg" xmlns:xlink="http://www.w3.org/1999/xlink" x="0px" y="0px"
	 viewBox="0 0 30 30" style="enable-background:new 0 0 30 30;" xml:space="preserve">
<style type="text/css">
	.st0{fill:#FFFFFF;}
	.st1{fill:#333333;}
</style>
<rect class="st0" width="30" height="30"/>
<g>
	<g>
		<path d="M20.34,23.45H8.51c-0.27,0-0.49-0.22-0.49-0.49V10.06c0-1.94,1.57-3.51,3.51-3.51h5.35c2.08,0,3.78,1.69,3.78,3.78v2.27
			c0,0.27-0.22,0.49-0.49,0.49h-5.26c-0.69,0-1.25,0.56-1.25,1.25v4.57c0,0.69,0.56,1.25,1.25,1.25h5.43c0.9,0,1.64,0.73,1.64,1.64
			C21.98,22.71,21.24,23.45,20.34,23.45z M8.69,22.78h11.65c0.54,0,0.97-0.44,0.97-0.97c0-0.54-0.44-0.97-0.97-0.97h-5.43
			c-1.06,0-1.92-0.86-1.92-1.92v-4.57c0-1.06,0.86-1.92,1.92-1.92H20v-2.1c0-1.72-1.4-3.11-3.11-3.11h-5.35
			c-1.57,0-2.85,1.28-2.85,2.85V22.78z"/>
	</g>
	<g>
		<path d="M10.84,15.82c-0.69,0-1.25-0.56-1.25-1.25c0-0.69,0.56-1.25,1.25-1.25c0.69,0,1.25,0.56,1.25,1.25
			C12.09,15.25,11.53,15.82,10.84,15.82z M10.84,13.81c-0.42,0-0.75,0.34-0.75,0.75s0.34,0.75,0.75,0.75s0.75-0.34,0.75-0.75
			S11.26,13.81,10.84,13.81z"/>
	</g>
	<g>
		<path d="M10.84,12.81c-0.69,0-1.25-0.56-1.25-1.25c0-0.69,0.56-1.25,1.25-1.25c0.69,0,1.25,0.56,1.25,1.25
			C12.09,12.25,11.53,12.81,10.84,12.81z M10.84,10.8c-0.42,0-0.75,0.34-0.75,0.75s0.34,0.75,0.75,0.75s0.75-0.34,0.75-0.75
			S11.26,10.8,10.84,10.8z"/>
	</g>
	<g>
		<g>
			<path d="M17.68,20.6h-1.55c-0.63,0-1.15-0.51-1.15-1.15v-2.73c0-0.22,0.18-0.39,0.39-0.39h3.06c0.22,0,0.39,0.18,0.39,0.39v2.73
				C18.83,20.09,18.32,20.6,17.68,20.6z M15.38,16.66c-0.03,0-0.06,0.03-0.06,0.06v2.73c0,0.45,0.37,0.82,0.82,0.82h1.55
				c0.45,0,0.82-0.37,0.82-0.82v-2.73c0-0.03-0.03-0.06-0.06-0.06H15.38z"/>
		</g>
		<g>
			<path d="M19.08,19.33h-0.32V19h0.32c0.15,0,0.27-0.12,0.27-0.27v-0.98c0-0.15-0.12-0.27-0.27-0.27h-0.32v-0.33h0.32
				c0.33,0,0.6,0.27,0.6,0.6v0.98C19.67,19.07,19.41,19.33,19.08,19.33z"/>
		</g>
	</g>
	<g>
		<path d="M16.91,14.04c-0.09,0-0.17-0.07-0.17-0.17v-0.97c0-0.09,0.07-0.17,0.17-0.17c0.09,0,0.17,0.07,0.17,0.17v0.97
			C17.07,13.97,17,14.04,16.91,14.04z"/>
	</g>
</g>
</svg>
