<?xml version="1.0" encoding="utf-8"?>
<!-- Generator: Adobe Illustrator 26.5.0, SVG Export Plug-In . SVG Version: 6.00 Build 0)  -->
<svg version="1.1" id="Layer_1" xmlns="http://www.w3.org/2000/svg" xmlns:xlink="http://www.w3.org/1999/xlink" x="0px" y="0px"
	 viewBox="0 0 30 30" style="enable-background:new 0 0 30 30;" xml:space="preserve">
<style type="text/css">
	.st0{fill:#FFFFFF;}
	.st1{fill:#333333;}
</style>
<rect class="st0" width="30" height="30"/>
<g>
	<g>
		<path d="M22.41,18.29H7.59c-0.61,0-1.1-0.49-1.1-1.1v-4.38c0-0.61,0.49-1.1,1.1-1.1h14.82c0.61,0,1.1,0.49,1.1,1.1v4.38
			C23.51,17.79,23.02,18.29,22.41,18.29z M7.59,12.21c-0.33,0-0.6,0.27-0.6,0.6v4.38c0,0.33,0.27,0.6,0.6,0.6h14.82
			c0.33,0,0.6-0.27,0.6-0.6v-4.38c0-0.33-0.27-0.6-0.6-0.6H7.59z"/>
	</g>
	<g>
		<path d="M8.37,18.04H8.12v-1.33c0-0.31,0.25-0.55,0.55-0.55h12.66c0.31,0,0.55,0.25,0.55,0.55v1.24h-0.25v-1.24
			c0-0.17-0.14-0.31-0.31-0.31H8.67c-0.17,0-0.31,0.14-0.31,0.31V18.04z"/>
	</g>
	<g>
		<rect x="8.24" y="17.01" width="13.52" height="0.25"/>
	</g>
	<g>
		<g>
			<g>
				<g>
					<path class="st1" d="M16.04,14.81c-0.01,0-0.02,0-0.03-0.01l-2.07-1.2c-0.03-0.02-0.04-0.05-0.02-0.07
						c0.02-0.03,0.05-0.04,0.07-0.02l2.07,1.2c0.03,0.02,0.04,0.05,0.02,0.07C16.07,14.8,16.06,14.81,16.04,14.81z"/>
				</g>
			</g>
			<g>
				<g>
					<g>
						<path class="st1" d="M15.68,15.12c-0.03,0-0.05-0.02-0.05-0.05l-0.01-0.52c0-0.03,0.02-0.06,0.05-0.06
							c0.03,0,0.06,0.02,0.06,0.05l0.01,0.52C15.73,15.09,15.71,15.12,15.68,15.12C15.68,15.12,15.68,15.12,15.68,15.12z"/>
					</g>
				</g>
				<g>
					<g>
						<path class="st1" d="M15.67,14.6c-0.02,0-0.04-0.01-0.05-0.03c-0.01-0.03-0.01-0.06,0.02-0.07l0.46-0.25
							c0.03-0.01,0.06-0.01,0.07,0.02c0.01,0.03,0.01,0.06-0.02,0.07l-0.46,0.25C15.69,14.6,15.68,14.6,15.67,14.6z"/>
					</g>
				</g>
			</g>
			<g>
				<g>
					<g>
						<path class="st1" d="M13.88,14.08c-0.02,0-0.04-0.01-0.05-0.03c-0.01-0.03-0.01-0.06,0.02-0.07l0.46-0.25
							c0.03-0.01,0.06-0.01,0.07,0.02c0.01,0.03,0.01,0.06-0.02,0.07l-0.46,0.25C13.89,14.08,13.89,14.08,13.88,14.08z"/>
					</g>
				</g>
				<g>
					<g>
						<path class="st1" d="M14.33,13.83c-0.03,0-0.05-0.02-0.05-0.05l-0.01-0.52c0-0.03,0.02-0.06,0.05-0.06
							c0.03,0,0.06,0.02,0.06,0.05l0.01,0.52C14.39,13.8,14.36,13.83,14.33,13.83C14.33,13.83,14.33,13.83,14.33,13.83z"/>
					</g>
				</g>
			</g>
		</g>
		<g>
			<g>
				<g>
					<path class="st1" d="M13.96,14.81c-0.02,0-0.04-0.01-0.05-0.03c-0.02-0.03-0.01-0.06,0.02-0.07l2.07-1.2
						c0.03-0.02,0.06-0.01,0.07,0.02c0.02,0.03,0.01,0.06-0.02,0.07l-2.07,1.2C13.98,14.81,13.97,14.81,13.96,14.81z"/>
				</g>
			</g>
			<g>
				<g>
					<g>
						<path class="st1" d="M15.67,13.83C15.67,13.83,15.67,13.83,15.67,13.83c-0.03,0-0.06-0.03-0.05-0.06l0.01-0.52
							c0-0.03,0.03-0.05,0.06-0.05c0.03,0,0.05,0.03,0.05,0.06l-0.01,0.52C15.72,13.81,15.7,13.83,15.67,13.83z"/>
					</g>
				</g>
				<g>
					<g>
						<path class="st1" d="M16.12,14.08c-0.01,0-0.02,0-0.03-0.01l-0.46-0.25c-0.03-0.01-0.04-0.05-0.02-0.07
							c0.01-0.03,0.05-0.04,0.07-0.02l0.46,0.25c0.03,0.01,0.04,0.05,0.02,0.07C16.16,14.07,16.14,14.08,16.12,14.08z"/>
					</g>
				</g>
			</g>
			<g>
				<g>
					<g>
						<path class="st1" d="M14.33,14.6c-0.01,0-0.02,0-0.03-0.01l-0.46-0.25c-0.03-0.01-0.04-0.05-0.02-0.07
							c0.01-0.03,0.05-0.04,0.07-0.02l0.46,0.25c0.03,0.01,0.04,0.05,0.02,0.07C14.37,14.59,14.35,14.6,14.33,14.6z"/>
					</g>
				</g>
				<g>
					<g>
						<path class="st1" d="M14.32,15.12C14.32,15.12,14.32,15.12,14.32,15.12c-0.03,0-0.06-0.03-0.05-0.06l0.01-0.52
							c0-0.03,0.03-0.05,0.06-0.05c0.03,0,0.05,0.03,0.05,0.06l-0.01,0.52C14.38,15.1,14.35,15.12,14.32,15.12z"/>
					</g>
				</g>
			</g>
		</g>
		<g>
			<g>
				<g>
					<path class="st1" d="M15,15.41c-0.03,0-0.05-0.02-0.05-0.05v-2.39c0-0.03,0.02-0.05,0.05-0.05c0.03,0,0.05,0.02,0.05,0.05v2.39
						C15.05,15.39,15.03,15.41,15,15.41z"/>
				</g>
			</g>
			<g>
				<g>
					<g>
						<path class="st1" d="M15,13.44c-0.01,0-0.02,0-0.03-0.01l-0.45-0.27c-0.03-0.02-0.03-0.05-0.02-0.08
							c0.02-0.03,0.05-0.03,0.08-0.02l0.45,0.27c0.03,0.02,0.03,0.05,0.02,0.08C15.04,13.43,15.02,13.44,15,13.44z"/>
					</g>
				</g>
				<g>
					<g>
						<path class="st1" d="M15,13.44c-0.02,0-0.04-0.01-0.05-0.03c-0.02-0.03-0.01-0.06,0.02-0.08l0.45-0.27
							c0.03-0.02,0.06-0.01,0.08,0.02c0.02,0.03,0.01,0.06-0.02,0.08l-0.45,0.27C15.02,13.44,15.01,13.44,15,13.44z"/>
					</g>
				</g>
			</g>
			<g>
				<g>
					<g>
						<path class="st1" d="M14.55,15.25c-0.02,0-0.04-0.01-0.05-0.03c-0.02-0.03-0.01-0.06,0.02-0.08l0.45-0.27
							c0.03-0.02,0.06-0.01,0.08,0.02c0.02,0.03,0.01,0.06-0.02,0.08l-0.45,0.27C14.57,15.25,14.56,15.25,14.55,15.25z"/>
					</g>
				</g>
				<g>
					<g>
						<path class="st1" d="M15.45,15.25c-0.01,0-0.02,0-0.03-0.01l-0.45-0.27c-0.03-0.02-0.03-0.05-0.02-0.08
							c0.02-0.03,0.05-0.03,0.08-0.02l0.45,0.27c0.03,0.02,0.03,0.05,0.02,0.08C15.48,15.24,15.47,15.25,15.45,15.25z"/>
					</g>
				</g>
			</g>
		</g>
	</g>
</g>
</svg>
